<svg id="Capa_1" data-name="Capa 1" xmlns="http://www.w3.org/2000/svg" viewBox="0 0 288.2 323.07"><path d="M498,363.74a23.11,23.11,0,0,0,3.55,2.91c.55.37,1.15.62,1.72.93a21.37,21.37,0,0,0,2.27,1.2,20.71,20.71,0,0,0,2.32.71c.67.2,1.31.46,2,.6a22.63,22.63,0,0,0,9.08,0c.7-.14,1.34-.4,2-.6a13.06,13.06,0,0,0,4.58-1.91c.58-.31,1.17-.56,1.73-.93a23.6,23.6,0,0,0,3.55-2.91l87.52-87.52a23.18,23.18,0,0,0-32.78-32.79l-48,48V134.18a23.19,23.19,0,0,0-46.37,0V291.4l-48-48a23.19,23.19,0,0,0-32.79,32.79Z" transform="translate(-370.27 -111)"/><path d="M635.29,340.4h0a23.18,23.18,0,0,0-23.18,23.19V380.4a7.3,7.3,0,0,1-7.31,7.3H423.94a7.3,7.3,0,0,1-7.3-7.3V363.59a23.18,23.18,0,0,0-23.18-23.19h0a23.19,23.19,0,0,0-23.19,23.19V380.4a53.83,53.83,0,0,0,53.67,53.67H604.8a53.83,53.83,0,0,0,53.67-53.67V363.59A23.18,23.18,0,0,0,635.29,340.4Z" transform="translate(-370.27 -111)"/></svg>