<?xml version="1.0" encoding="utf-8"?>
<!-- Generator: Adobe Illustrator 27.0.0, SVG Export Plug-In . SVG Version: 6.00 Build 0)  -->
<svg version="1.1" id="Capa_1" xmlns="http://www.w3.org/2000/svg" xmlns:xlink="http://www.w3.org/1999/xlink" x="0px" y="0px"
	 viewBox="0 0 512 512" style="enable-background:new 0 0 512 512;" xml:space="preserve">
<style type="text/css">
	.st0{fill:#FFFFFF;}
</style>
<path class="st0" d="M106.1,424.5v66.1c0,8.6,5.2,16.4,13.2,19.7c7.8,3.3,17,1.6,23.3-4.6l81.9-79.1h161.8
	c58.8,0,106.7-47.9,106.7-106.7V106.7C492.9,47.9,445.1,0,386.3,0H127.4C68.6,0,20.8,47.9,20.8,106.7V320
	C20.8,371.5,57.5,414.6,106.1,424.5L106.1,424.5z M258.3,341.3c-11.8,0-21.3-9.6-21.3-21.3c0-11.8,9.6-21.3,21.3-21.3
	c11.8,0,21.3,9.5,21.3,21.3C279.6,331.8,270,341.3,258.3,341.3z M258.3,85.3c35.3,0,64,28.7,64,64c0,22.8-12.2,44-32,55.4
	c-6.6,3.8-10.7,10.9-10.7,18.5v11.4c0,11.8-9.5,21.3-21.3,21.3c-11.8,0-21.3-9.5-21.3-21.3v-11.4c0-22.8,12.2-44,32-55.4
	c6.6-3.8,10.7-10.9,10.7-18.5c0-11.8-9.6-21.3-21.3-21.3s-21.3,9.6-21.3,21.3c0,11.8-9.5,21.3-21.3,21.3c-11.8,0-21.3-9.5-21.3-21.3
	C194.3,114,223,85.3,258.3,85.3L258.3,85.3z"/>
</svg>
